<svg xmlns="http://www.w3.org/2000/svg" width="16" height="16" viewBox="0 0 16 16">
  <path id="Icon" d="M13.6,16H2.4A2.4,2.4,0,0,1,0,13.6V4A2.4,2.4,0,0,1,2.4,1.6h.8V.8A.8.8,0,0,1,4.8.8v.8h6.4V.8a.8.8,0,0,1,1.6,0v.8h.8A2.4,2.4,0,0,1,16,4v9.6A2.4,2.4,0,0,1,13.6,16Zm-2.4-4v2.4h2.4a.8.8,0,0,0,.8-.8V12ZM6.4,12v2.4H9.6V12ZM1.6,12v1.6a.8.8,0,0,0,.8.8H4.8V12Zm9.6-4v2.4h3.2V8ZM6.4,8v2.4H9.6V8ZM1.6,8v2.4H4.8V8Zm.8-4.8a.8.8,0,0,0-.8.8V6.4H14.4V4a.8.8,0,0,0-.8-.8h-.8V4a.8.8,0,0,1-1.6,0V3.2H4.8V4A.8.8,0,0,1,3.2,4V3.2Z" fill="#42b4a7"/>
</svg>
