<svg xmlns="http://www.w3.org/2000/svg" width="14.999" height="15" viewBox="0 0 14.999 15">
  <path id="Icon" d="M7.5,15a6.75,6.75,0,1,1,6.75-6.75A6.758,6.758,0,0,1,7.5,15Zm0-12a5.25,5.25,0,1,0,5.25,5.25A5.256,5.256,0,0,0,7.5,3ZM9,9.75a.745.745,0,0,1-.53-.22l-1.5-1.5A.748.748,0,0,1,6.75,7.5V5.25a.75.75,0,1,1,1.5,0V7.19L9.531,8.47A.75.75,0,0,1,9,9.75Zm5.25-6a.745.745,0,0,1-.531-.219l-2.25-2.25A.75.75,0,0,1,12,0a.744.744,0,0,1,.53.219l2.25,2.25a.75.75,0,0,1-.531,1.28Zm-13.5,0A.75.75,0,0,1,.22,2.47L2.47.219A.75.75,0,0,1,3.53,1.281L1.281,3.53A.745.745,0,0,1,.75,3.75Z" transform="translate(-0.001 0)" fill="#42b4a7"/>
</svg>
