<svg xmlns="http://www.w3.org/2000/svg" width="15.049" height="16.126" viewBox="0 0 15.049 16.126">
  <path id="Path_10928" data-name="Path 10928" d="M2.543,16.973a1.078,1.078,0,0,0,1.088,0L5.842,15.7a1.423,1.423,0,0,1,1.182-.083A7.527,7.527,0,0,0,17,7.639h0A7.525,7.525,0,0,0,2,8.523V16.03a1.078,1.078,0,0,0,.544.943Zm.531-8.45a6.461,6.461,0,0,1,2.139-4.8,6.377,6.377,0,0,1,4.3-1.651,6.858,6.858,0,0,1,.723.039,6.459,6.459,0,0,1,5.692,5.65h0a6.453,6.453,0,0,1-8.548,6.846,2.49,2.49,0,0,0-2.076.165L3.074,16.03Z" transform="translate(-1.999 -0.995)"/>
</svg>
