<svg xmlns="http://www.w3.org/2000/svg" width="16.676" height="16.676" viewBox="0 0 16.676 16.676">
  <g id="Group_5997" data-name="Group 5997" transform="translate(-1018.108 -554.912)">
    <path id="Path" d="M12.507,0a.834.834,0,0,1,.834.834v.834h.834a2.5,2.5,0,0,1,2.5,2.5V5.836a.834.834,0,1,1-1.668,0V4.169a.834.834,0,0,0-.834-.834H13.34v.834a.834.834,0,0,1-1.668,0V3.335H5v.834a.834.834,0,0,1-1.668,0V3.335H2.5a.834.834,0,0,0-.834.834v2.5H5.836a.834.834,0,0,1,0,1.668H1.668v5.836a.834.834,0,0,0,.834.834H5.836a.834.834,0,1,1,0,1.668H2.5a2.5,2.5,0,0,1-2.5-2.5V4.169a2.5,2.5,0,0,1,2.5-2.5h.834V.834A.834.834,0,1,1,5,.834v.834h6.67V.834A.834.834,0,0,1,12.507,0Z" transform="translate(1018.108 554.912)" fill="#42b4a7"/>
    <path id="Path-2" data-name="Path" d="M4.169,0A.834.834,0,0,1,5,.834v2.5H7.5A.834.834,0,1,1,7.5,5H5V7.5a.834.834,0,1,1-1.668,0V5H.834a.834.834,0,1,1,0-1.668h2.5V.834A.834.834,0,0,1,4.169,0Z" transform="translate(1026.445 563.25)" fill="#42b4a7"/>
  </g>
</svg>
