<svg xmlns="http://www.w3.org/2000/svg" width="13.407" height="12.819" viewBox="0 0 13.407 12.819">
  <path id="Union_87" data-name="Union 87" d="M6.544,9.025a2.866,2.866,0,0,1,2.93-2.791,2.867,2.867,0,0,1,2.933,2.791,2.869,2.869,0,0,1-2.933,2.794A2.868,2.868,0,0,1,6.544,9.025Zm.968,0a1.966,1.966,0,0,0,3.927,0,1.966,1.966,0,0,0-3.927,0ZM1.94,11.819A1.9,1.9,0,0,1,0,9.972V2.77A1.9,1.9,0,0,1,1.94.923h.6V.462a.485.485,0,0,1,.968,0V.923H5.7V.462a.484.484,0,0,1,.968,0V.923H8.87V.462a.485.485,0,0,1,.968,0V.923h.63a1.9,1.9,0,0,1,1.94,1.848V5.4a.485.485,0,0,1-.968,0V2.77a.948.948,0,0,0-.972-.922h-.63v.461a.485.485,0,0,1-.968,0V1.848H6.664v.461a.485.485,0,0,1-.968,0V1.848H3.512v.461a.485.485,0,0,1-.968,0V1.848h-.6a.948.948,0,0,0-.972.922v7.2a.951.951,0,0,0,.972.926H5.645a.462.462,0,1,1,0,.922ZM9.474,9.486a.473.473,0,0,1-.484-.461V8.079a.485.485,0,0,1,.968,0v.485h.218a.462.462,0,1,1,0,.922ZM4.513,8.6a.563.563,0,1,1,.564.538A.551.551,0,0,1,4.513,8.6Zm-2.256,0a.565.565,0,1,1,.564.538A.551.551,0,0,1,2.257,8.6ZM4.513,6.446a.563.563,0,1,1,.564.538A.552.552,0,0,1,4.513,6.446Zm-2.256,0a.565.565,0,1,1,.564.538A.552.552,0,0,1,2.257,6.446ZM9.023,4.3a.565.565,0,1,1,.564.535A.552.552,0,0,1,9.023,4.3Zm-2.257,0a.565.565,0,1,1,.564.535A.552.552,0,0,1,6.766,4.3Zm-2.253,0a.563.563,0,1,1,.564.535A.55.55,0,0,1,4.513,4.3Zm-2.256,0a.565.565,0,1,1,.564.535A.55.55,0,0,1,2.257,4.3Z" transform="translate(0.5 0.5)" fill="#42b4a7" stroke="rgba(0,0,0,0)" stroke-miterlimit="10" stroke-width="1"/>
</svg>
