<svg xmlns="http://www.w3.org/2000/svg" width="12.964" height="14.295" viewBox="0 0 12.964 14.295">
  <g id="Group_5047" data-name="Group 5047" transform="translate(0 0)">
    <path id="Union_14" data-name="Union 14" d="M1.3,14.3A1.3,1.3,0,0,1,0,13V2.6A1.3,1.3,0,0,1,1.3,1.3h.648V0h1.3V1.3H9.723V0h1.3V1.3h.648a1.3,1.3,0,0,1,1.3,1.3V13a1.3,1.3,0,0,1-1.3,1.3Zm0-1.3H11.667V4.549H1.3Zm4.893-1.55V9.394H4.137V8.808H6.189V6.756h.585V8.808H8.825v.586H6.774v2.052Z" transform="translate(0 0)" fill="#687281"/>
  </g>
</svg>
