<svg xmlns="http://www.w3.org/2000/svg" width="41" height="38" viewBox="0 0 41 38">
  <g id="Group_5030" data-name="Group 5030" transform="translate(-46 -8)">
    <g id="Group_4743" data-name="Group 4743" transform="translate(4 -6)">
      <g id="Group_4740" data-name="Group 4740" transform="translate(54.942 14)">
        <path id="Path_10580" data-name="Path 10580" d="M13.775,19.519a4.011,4.011,0,1,1-4,4.011,4.006,4.006,0,0,1,4-4.011Z" transform="translate(-3.347 -8.26)" fill="#fff" fill-rule="evenodd"/>
        <path id="Path_10581" data-name="Path 10581" d="M10.283,1a10.241,10.241,0,0,1,5.072,19.162l-.114-.143a7.147,7.147,0,0,0,1.919-4.9,6.974,6.974,0,0,0-6.877-7.068,6.974,6.974,0,0,0-6.877,7.068,7.147,7.147,0,0,0,1.916,4.894l-.116.143A10.241,10.241,0,0,1,10.283,1Z" transform="translate(0 -1)" fill="#fff" fill-rule="evenodd"/>
      </g>
      <text id="Bewta" transform="translate(42 49)" fill="#fff" font-size="13" font-family="Helvetica-Bold, Helvetica" font-weight="700" letter-spacing="0.05em"><tspan x="0" y="0">Bewta</tspan></text>
    </g>
  </g>
</svg>
